<?xml version="1.0" standalone="no"?>
<!DOCTYPE svg PUBLIC "-//W3C//DTD SVG 20010904//EN"
 "http://www.w3.org/TR/2001/REC-SVG-20010904/DTD/svg10.dtd">
<svg version="1.0" xmlns="http://www.w3.org/2000/svg"
 width="200.000000pt" height="200.000000pt" viewBox="0 0 200.000000 200.000000"
 preserveAspectRatio="xMidYMid meet">
<metadata>
Created by potrace 1.15, written by Peter Selinger 2001-2017
</metadata>
<g transform="translate(0.000000,200.000000) scale(0.100000,-0.100000)"
fill="#000000" stroke="none">
<path d="M0 1000 l0 -990 1000 0 1000 0 0 990 0 990 -1000 0 -1000 0 0 -990z
m1060 855 c0 -2 -23 -98 -51 -212 -27 -114 -77 -320 -110 -458 -33 -137 -62
-258 -65 -268 -5 -16 -19 -17 -162 -15 l-157 3 3 25 c2 14 27 124 57 245 30
121 63 258 74 305 11 47 32 135 46 195 14 61 30 127 36 148 l10 37 159 0 c88
0 160 -2 160 -5z m565 -72 c-3 -21 -21 -96 -38 -168 l-32 -130 -158 -3 c-86
-1 -157 1 -157 6 0 14 71 316 76 324 3 5 75 8 160 8 l156 0 -7 -37z m225 -340
c-1 -5 -15 -69 -33 -143 l-33 -135 -412 -1 c-371 0 -412 1 -408 15 3 9 17 66
31 126 15 61 29 118 31 128 5 16 33 17 415 17 225 0 409 -3 409 -7z m-1263
-15 c-2 -7 -10 -35 -16 -63 -7 -27 -20 -84 -30 -125 l-19 -75 -126 -3 c-107
-2 -126 0 -126 13 0 13 46 223 55 253 3 9 39 12 136 12 101 0 130 -3 126 -12z
m873 -314 c0 -8 -211 -888 -213 -891 -1 -1 -71 -3 -155 -5 -175 -3 -162 -14
-131 107 24 92 37 145 73 308 14 64 35 156 46 202 11 47 29 124 40 173 12 48
23 93 25 100 3 9 44 12 160 12 85 0 155 -3 155 -6z m-426 -291 c-3 -16 -18
-77 -33 -138 l-27 -110 -107 0 c-59 0 -242 1 -407 3 l-301 2 7 38 c4 20 17 78
28 127 l21 90 65 6 c36 3 221 6 412 7 l348 2 -6 -27z m656 16 c0 -9 -46 -214
-56 -246 -2 -10 -36 -13 -124 -13 -111 0 -121 2 -116 18 3 9 14 60 26 112 34
152 21 140 155 140 75 0 115 -4 115 -11z m-938 -314 c2 -3 -12 -69 -31 -147
l-36 -143 -150 -3 c-82 -1 -155 0 -162 2 -9 4 -10 13 -4 33 5 15 22 81 37 146
l27 117 157 0 c86 0 159 -2 162 -5z"/>
<path d="M765 1808 c-6 -17 -61 -244 -70 -288 -4 -19 -13 -57 -21 -85 -8 -27
-28 -106 -45 -175 -16 -69 -39 -161 -49 -205 -11 -44 -22 -88 -24 -97 -4 -16
7 -18 123 -18 l127 0 38 158 c21 86 53 220 71 297 19 77 46 190 61 250 14 61
30 125 34 143 l8 32 -124 0 c-91 0 -126 -3 -129 -12z"/>
<path d="M455 478 c-7 -19 -45 -187 -45 -198 0 -6 52 -10 125 -10 l125 0 6 28
c3 15 15 60 25 99 11 40 19 77 19 83 0 16 -249 13 -255 -2z"/>
</g>
</svg>
